<svg xmlns="http://www.w3.org/2000/svg" width="771.13" height="160.754" viewBox="77.697 34.695 771.13 160.754"><path d="M514.969 50.232l-24.924 69.742-9.584-11.585c8.858-1.575 13.362-8.623 13.362-16.047 0-8.322-5.611-16.721-16.832-16.721h-18.824v52.487h7.382V83.27h11.442c6.275 0 9.376 4.573 9.376 9.072 0 4.574-3.101 9.148-9.376 9.148h-8.711v3.599l18.825 23.02h.032l-16.889 47.26 3.188-.007 44.715-125.123-3.182-.007zM518.875 119.966c-5.537-.525-11.368-1.2-11.737-6.599-.148-1.8.221-3.524 1.255-4.874 2.066-2.699 5.905-3.898 9.375-3.974 4.503-.075 9.523 1.949 10.557 6.674l7.382-.301c-1.328-9.598-9.597-13.796-17.569-13.796-5.979 0-12.181 2.399-15.65 6.973-2.215 2.925-3.101 6.448-2.805 9.973v-.075c.812 10.947 10.261 12.747 18.308 13.572 5.167.524 10.482 1.199 11.368 5.174.147.675.222 1.274.222 1.799 0 5.399-6.054 8.549-11.59 8.549-4.799 0-10.631-2.55-11.147-7.424v.3l-.073-1.124-7.53.149.074 1.425c.959 9.373 10.63 14.172 18.603 14.172 9.302 0 19.194-5.849 19.194-15.972 0-1.05-.148-2.324-.369-3.449-1.996-8.397-10.781-10.272-17.868-11.172zM554.382 127.689h23.402v-7.648h-23.402V105.27h23.919v-7.573h-31.448v52.412h31.521v-7.573h-23.992M612.404 142.986c-4.946 0-9.449-2.175-12.697-5.624s-5.315-8.098-5.315-13.347c0-5.398 2.067-10.048 5.315-13.497 3.248-3.448 7.751-5.623 12.697-5.623 7.604 0 13.952 3.974 16.684 11.847h7.383c-2.953-11.847-12.255-19.345-24.066-19.345-7.013 0-13.361 3.074-17.865 7.798-4.429 4.799-7.382 11.397-7.382 18.82 0 7.273 2.953 13.872 7.382 18.671 4.504 4.799 10.853 7.798 17.865 7.798 12.033 0 21.482-8.098 24.436-20.021h-7.309c-2.659 7.949-9.302 12.523-17.128 12.523zM638.905 104.82h15.651v45.289h7.456V104.82h15.576v-7.199h-38.683M725.544 96.647c-7.309 0-14.026 3.074-18.825 8.023-4.725 4.948-7.751 11.696-7.751 19.195 0 7.498 3.026 14.246 7.751 19.195 4.799 5.023 11.517 8.022 18.825 8.022 7.382 0 14.026-2.999 18.898-8.022 4.725-4.949 7.751-11.697 7.751-19.195 0-7.499-3.026-14.247-7.751-19.195-4.872-4.949-11.516-8.023-18.898-8.023zm13.509 40.94c-3.469 3.599-8.342 5.773-13.509 5.773-5.168 0-9.893-2.175-13.362-5.773-3.47-3.449-5.61-8.323-5.61-13.722s2.141-10.272 5.61-13.722c3.47-3.6 8.194-5.774 13.362-5.774 5.167 0 10.04 2.175 13.509 5.774 3.396 3.449 5.537 8.248 5.537 13.722s-2.141 10.273-5.537 13.722zM793.238 134.587l-25.173-36.966h-5.758v52.488h7.456v-36.666l24.951 36.666h5.906V97.621h-7.382M848.455 131.138c-1.993-8.397-10.778-10.272-17.865-11.172-5.537-.525-11.368-1.2-11.737-6.599-.148-1.8.221-3.524 1.255-4.874 2.066-2.699 5.905-3.898 9.375-3.974 4.503-.075 9.523 1.949 10.557 6.674l7.382-.301c-1.328-9.598-9.597-13.796-17.569-13.796-5.979 0-12.181 2.399-15.65 6.973-2.215 2.925-3.101 6.448-2.805 9.973v-.075c.812 10.947 10.261 12.747 18.308 13.572 5.167.524 10.482 1.199 11.368 5.174.147.675.222 1.274.222 1.799 0 5.399-6.054 8.549-11.59 8.549-4.799 0-10.631-2.55-11.147-7.424v.3l-.073-1.124-7.53.149.074 1.425c.959 9.373 10.63 14.172 18.603 14.172 9.302 0 19.194-5.849 19.194-15.972-.003-1.05-.151-2.324-.372-3.449zM683.945 97.44h7v53h-7zM355.901 112.587l-25.174-36.966h-5.757v52.488h7.456V91.443l24.951 36.666h5.906V75.621h-7.382M369.509 82.82h15.65v45.289h7.456V82.82h15.576v-7.199h-38.682M424.432 105.689h23.402v-7.648h-23.402V83.27h23.918v-7.573h-31.448v52.412h31.522v-7.573h-23.992M307.478 75.235h7v53h-7z"/><path fill="#D6B328" d="M194.584 51.928v33.259l-28.925-17.465V34.695"/><path fill="#ECC21B" d="M194.584 85.187l-59.541 33.236-28.101-16.908 58.717-33.793"/><path fill="#F4D221" d="M106.919 135.238l28.375 16.537-29.313 16.815-28.376-16.63"/><path fill="#CCB23A" d="M135.043 118.423l.251 33.352-28.375-16.537.023-33.723"/><path fill="#EDECEC" d="M77.697 83.771l29.245 17.744-.023 33.723-29.314 16.722"/><path fill="#E7E6E5" d="M165.659 34.695v33.027l-58.717 33.793-29.245-17.744"/><path fill="#E5E4E4" d="M144.433 173.011v-33.259l59.541-33.306 28.101 16.978"/><path fill="#62D3BD" d="M261.388 141.401l-88.214 48.982-28.741-17.372 87.642-49.587"/><path fill="#D8D8D7" d="M203.928 73.188l29.107-16.839-.96 67.075-28.101-16.978"/><path fill="#41A491" d="M232.075 123.424l.96-67.075 28.376 16.63-.023 68.422"/><g fill="#B02752"><path d="M695.213 172.42c0-7.744 4.993-13.705 12.992-13.705 9.629 0 13.348 6.011 13.348 12.227 0 3.669-1.936 7.388-5.401 10.241l-7.133 5.604h12.38v8.152h-26.136v-6.266l14.979-13.654c1.529-1.375 2.548-2.853 2.548-4.229 0-1.936-1.58-3.719-4.585-3.719-2.395 0-4.484 2.139-4.484 5.349h-8.508zM743.254 158.715c10.189 0 18.493 7.947 18.493 18.443 0 10.343-8.304 18.291-18.493 18.291-10.19 0-18.444-7.795-18.444-18.291.001-10.495 8.254-18.443 18.444-18.443zm-.204 28.48c4.942.051 9.934-3.311 9.934-10.037 0-6.826-4.993-10.189-9.934-10.087-4.84.102-9.578 3.413-9.578 10.087 0 6.674 4.738 9.986 9.578 10.037zM772.086 194.939v-20.583l-2.955 2.853-5.859-5.808 11.362-12.38h5.756v35.918h-8.304zM811.314 158.97v5.248l-16.66 30.721h-9.476l15.131-27.971H784.77v-7.998h26.544z"/></g></svg>